# xmcd
# 
# Track frame offsets:
#     150
#     19503
#     42242
# 
# Disc length: 820
# 
# Revision: 2
# Processed by: cddbd v1.5.2PL0 Copyright (c) Steve Scherf et al.
# Submitted via: fre:ac v1.0.17
# 
DISCID=18033203
DTITLE=倉木麻衣 - SUMMER TIME GONE(通常盤) 
DYEAR=2010
DGENRE=JPop
TTITLE0=SUMMER TIME GONE
TTITLE1=anywhere
TTITLE2=SUMMER TIME GONE -Instrumental-
EXTD=
EXTT0=
EXTT1=
EXTT2=
PLAYORDER=
